# xmcd CD database file generated by LOLA_Freedb v0.9beta0
# 
# Track frame offsets:
#      150
#      20212
#      32871
#      44360
#      55421
#      73308
#      85244
#      97883
#      109660
#      123463
#      134577
#      135177
#      148306
#      163027
#      175574
#      193918
#      205370
#      221297
#      236429
#      249440
#      260408
# 
# Disc length: 3632 seconds
# 
# Revision: 0 
# Processed by: cddbd v1.5.2PL0 Copyright (c) Steve Scherf et al.
# Submitted via: LOLA_Freedb v0.9beta0
# 
DISCID=3b0e2e15
DTITLE=MARTY ROBBINS - MARTY ROBBINS ALL-TIME GREATEST HITS
DYEAR=1972
DGENRE=
TTITLE0=MARTY ROBBINS - EL PASO
TTITLE1=MARTY ROBBINS - STREETS OF LAREDO
TTITLE2=MARTY ROBBINS - RIBBON OF DARKNESS
TTITLE3=MARTY ROBBINS - LOVE IS BLUE(L'AMOUR EST BLEU)
TTITLE4=MARTY ROBBINS - BIG IRON
TTITLE5=MARTY ROBBINS - THE GIRL WITH GARDENIAS IN HER HAIR
TTITLE6=MARTY ROBBINS - IT'S A SIN
TTITLE7=MARTY ROBBINS - MARIA(IF I COULD)
TTITLE8=MARTY ROBBINS - I WALK ALONE
TTITLE9=MARTY ROBBINS - ALOHA OE (FAREWELL TO THEE)
TTITLE10=MARTY ROBBINS - DEVIL WOMAN
TTITLE11=MARTY ROBBINS - DON'T WORRY
TTITLE12=MARTY ROBBINS - TONIGHT CARMEN
TTITLE13=MARTY ROBBINS - YOU GAVE ME A MOUNTAIN
TTITLE14=MARTY ROBBINS - KAW-LIGA*
TTITLE15=MARTY ROBBINS - MY WOMAN, MY WOMAN, MY WIFE
TTITLE16=MARTY ROBBINS - PARDRE
TTITLE17=MARTY ROBBINS - THE HANGING TREE
TTITLE18=MARTY ROBBINS - RED RIVER VALLEY
TTITLE19=MARTY ROBBINS - JOLI GIRL
TTITLE20=
EXTD=
EXTT0=
EXTT1=
EXTT2=
EXTT3=
EXTT4=
EXTT5=
EXTT6=
EXTT7=
EXTT8=
EXTT9=
EXTT10=
EXTT11=
EXTT12=
EXTT13=
EXTT14=
EXTT15=
EXTT16=
EXTT17=
EXTT18=
EXTT19=
EXTT20=
PLAYORDER=
